<svg width="55" height="74" viewBox="0 0 55 74" fill="none" xmlns="http://www.w3.org/2000/svg">
<path d="M43.4793 66.1405L37.2336 61.1177C45.4389 57.9991 51.2725 50.0652 51.2725 40.7659C51.2725 29.3849 42.5374 20.0494 31.4069 19.0843C30.9862 18.3516 30.4621 17.6867 29.8538 17.1083L33.6113 9.83587L32.606 9.36491C32.2374 9.1919 31.8835 9.02568 31.542 8.86399C32.005 8.03628 32.5286 7.02199 32.7632 6.45605C32.8695 6.19993 33.1516 5.51922 32.8339 4.82437C32.6066 4.33024 32.1916 4.0826 31.9688 3.94974C30.3066 2.9592 28.5732 2.04838 26.816 1.24215C25.9617 0.849782 25.2465 0.863351 24.6879 1.28116C24.3527 1.53163 24.191 1.85672 24.0932 2.05177L22.9307 4.38847C22.4773 4.1267 22.0035 3.8508 21.5037 3.55624L20.0258 2.81051L19.5538 3.79143C15.6719 11.8616 12.084 18.7875 8.02234 26.0463C7.44396 25.7399 6.85315 25.4261 6.24763 25.1038L5.33963 24.621L0.800232 32.4305L5.06939 34.627C4.71998 35.2914 4.39376 35.9704 4.23376 36.4063C4.1416 36.6573 3.86118 37.4217 4.3457 38.1793C4.60521 38.5852 4.97553 38.8227 5.33229 39.0313C7.58361 40.3486 9.91748 41.5925 12.2689 42.73C12.5691 42.8753 13.1458 43.1535 13.7609 43.1535C14.0413 43.1535 14.3291 43.0958 14.6028 42.9409C15.0511 42.6876 15.2433 42.2828 15.3355 42.09L16.1722 40.339L20.4069 42.5174L20.922 41.6597C21.1792 41.2306 23.452 37.437 23.9642 36.3079C24.0655 36.0846 24.3346 35.4921 24.0604 34.8724C23.8608 34.4229 23.4922 34.229 23.3378 34.1476C22.7261 33.8225 22.1296 33.5059 21.5461 33.1966L22.2274 31.8782C22.7713 31.9845 23.3271 32.045 23.8947 32.045C27.4 32.045 30.4191 29.9469 31.7811 26.943C38.439 28.0331 43.5246 33.7988 43.5246 40.7653C43.5246 48.5087 37.2472 54.7861 29.5038 54.7861C26.4677 54.7861 23.6612 53.8159 21.3658 52.1763H25.3698V45.623H2.84011V52.1769H10.973C13.2922 55.9349 16.7161 58.9365 20.7993 60.7203L14.0594 66.1411H1.6302V73.3248H54.6257V66.1405H43.4793ZM25.9176 3.1797C25.9199 3.18083 25.9227 3.18196 25.925 3.18309C27.5713 3.93843 29.1962 4.78932 30.7572 5.71428C30.5311 6.23668 30.0273 7.20008 29.6107 7.93903C27.897 7.1051 26.4287 6.34863 24.7925 5.44177L25.9176 3.1797ZM20.9904 5.72898C24.7021 7.90115 27.1032 9.12858 30.6945 10.8258L28.1141 15.8204C26.8641 15.1199 25.4263 14.7162 23.8941 14.7162C22.4875 14.7162 21.0989 15.0577 19.8828 15.7016C17.0141 17.2022 15.2326 20.1432 15.2326 23.3778C15.2326 26.727 17.1701 29.7744 20.174 31.198L19.6578 32.1965C17.9617 31.2987 16.352 30.4489 14.7413 29.5986C13.1593 28.7635 11.5769 27.9279 9.91013 27.0459C13.8141 20.0686 17.2821 13.3955 20.9904 5.72898ZM13.5144 40.9457C13.4341 40.9151 13.3301 40.8705 13.1984 40.8066C10.8973 39.6939 8.61429 38.4761 6.40989 37.1871C6.37597 37.1667 6.31265 37.13 6.25611 37.0966C6.3918 36.741 6.6711 36.1677 6.96848 35.6034L14.2714 39.3604L13.5144 40.9457ZM21.8463 35.7747C21.3754 36.6822 20.3277 38.4772 19.6024 39.7007L3.77694 31.5593L6.15321 27.4716C8.88511 28.9218 11.3157 30.2052 13.7445 31.4875C16.3198 32.8472 18.8934 34.2058 21.8463 35.7747ZM23.8947 29.909C22.959 29.909 22.0629 29.7167 21.2239 29.334C18.8821 28.2875 17.3691 25.9491 17.3691 23.3772C17.3691 20.9404 18.7119 18.7241 20.8784 17.5911C21.7921 17.1072 22.8346 16.8516 23.8947 16.8516C27.4928 16.8516 30.4203 19.7786 30.4203 23.3772C30.4203 26.9792 27.4928 29.909 23.8947 29.909ZM4.97666 47.759H23.2327V50.0403H4.97666V47.759ZM23.0998 61.5666C25.1255 62.1897 27.2728 62.5357 29.5027 62.5357C31.3237 62.5357 33.0911 62.309 34.7816 61.8878L40.0701 66.1411H17.4681L23.1218 61.5938L23.0998 61.5666ZM52.4892 71.1888H3.76619V68.2771H52.4892V71.1888Z" fill="#416BD0"/>
</svg>
