<svg width="73" height="65" viewBox="0 0 73 65" fill="none" xmlns="http://www.w3.org/2000/svg">
<path d="M72.311 58.7282C72.0555 56.9179 71.113 55.3586 70.3571 54.1051C69.0878 52.0031 53.7831 32.0238 51.4984 29.0443V9.95832C52.0971 9.07576 53.8334 6.5197 55.443 4.16943L55.5838 3.96363L56.3476 0.400635H30.6072L31.371 3.96363L31.5118 4.16943C33.1503 6.5621 34.9137 9.2499 35.5033 10.1511V18.3564H28.3587V14.7527H29.0739V12.2272H18.5087V14.7527H19.2239V18.3564H13.6476V14.7527H14.3622V12.2272H3.7982V14.7527H4.51283V18.3564H2.65274L2.52553 5.40591L0 5.43079L0.379933 43.7435C0.403678 44.0833 0.454562 44.7911 0.987146 45.3328C1.5333 45.8902 2.25472 45.9501 2.68045 45.9501C2.74773 45.9501 2.80709 45.9484 2.85741 45.9479C5.72556 45.875 10.1072 45.8015 14.4883 45.7285C17.4616 45.6788 20.4236 45.6296 22.926 45.5798C19.7463 49.75 17.0941 53.2831 16.5966 54.1063C15.8401 55.3586 14.8988 56.9179 14.6427 58.7293C14.3871 60.5363 14.9689 62.8583 16.842 63.9721C18.0666 64.702 19.5026 64.698 20.5446 64.6958C29.1197 64.6754 57.8391 64.6754 66.4096 64.6958C66.4724 64.6958 66.5351 64.6958 66.5996 64.6958C67.624 64.6958 68.96 64.659 70.1117 63.9721C71.9854 62.8572 72.5666 60.5357 72.311 58.7282ZM63.9033 49.5352H23.09C27.626 43.5518 34.484 34.6777 37.7626 30.4532L38.0283 30.1111V11.0195L48.9723 10.8527V29.9014L49.2329 30.2417C52.5116 34.5154 59.378 43.5015 63.9033 49.5352ZM33.736 2.94822L33.7309 2.92617H53.2228L53.2188 2.94765C51.7653 5.07008 50.2416 7.31236 49.5597 8.31759L37.442 8.50247C36.746 7.44013 35.2071 5.1023 33.736 2.94822ZM21.75 14.7527H25.8332V36.5242C25.8332 37.6001 24.9574 38.4759 23.8809 38.4759H23.7017C22.6258 38.4759 21.75 37.6001 21.75 36.5242V14.7527ZM7.03837 14.7527H11.1221V36.5242C11.1221 37.6001 10.2463 38.4759 9.16983 38.4759H8.99061C7.91413 38.4759 7.03837 37.6001 7.03837 36.5242V14.7527ZM14.4459 43.2024C10.1101 43.2748 5.77418 43.3472 2.89981 43.4195L2.67819 20.8819H4.5134V36.5242C4.5134 38.9932 6.52218 41.0014 8.99117 41.0014H9.1704C11.6394 41.0014 13.6482 38.9932 13.6482 36.5242V20.8819H19.2245V36.5242C19.2245 38.9932 21.2327 41.0014 23.7017 41.0014H23.8809C26.3499 41.0014 28.3587 38.9932 28.3587 36.5242V20.8819H35.5028V29.2461C34.281 30.8218 29.3967 37.1241 24.8878 43.0113C22.0717 43.0752 18.2599 43.1391 14.4459 43.2024Z" fill="#416BD0"/>
</svg>
