<svg width="45" height="74" viewBox="0 0 45 74" fill="none" xmlns="http://www.w3.org/2000/svg">
<path d="M42.0393 64.7834C41.1048 64.1649 40.0679 63.7798 39.0576 63.4841C39.8536 61.7315 39.9254 59.5972 39.2029 57.6071C38.9309 56.8574 38.5431 56.1388 38.0676 55.449H38.3876V50.887L43.3346 50.7061V25.7091C43.3346 21.4043 40.8888 17.7509 38.8371 15.4441C37.8267 14.3083 36.164 14.3077 35.1536 15.4441C34.7929 15.8495 34.1343 16.6467 33.4434 17.7413C33.0437 11.1394 28.3154 0.95752 22.5859 0.95752C16.8745 0.95752 12.1581 11.0761 11.7324 17.6796C11.0878 16.6812 10.4563 15.9061 10.021 15.4187C9.52515 14.8635 8.858 14.5576 8.14223 14.5576C7.42647 14.5576 6.75989 14.8635 6.26406 15.4187C4.95182 16.8881 1.90049 20.8327 1.90049 25.7153V50.9893H8.06874V55.4496H10.1895C9.90508 55.7464 9.63652 56.0641 9.3985 56.4107C8.37517 57.8977 7.91948 59.6605 8.12471 61.3679C5.70886 60.8178 3.05498 61.6241 1.58275 63.5073C0.630652 64.7268 0.243934 66.4241 0.548106 68.0496C0.834186 69.5732 1.69525 70.8629 2.91138 71.5871L4.00595 69.7485C3.31675 69.3386 2.82318 68.5759 2.65074 67.6555C2.45738 66.6248 2.68862 65.5664 3.26813 64.8246C4.43054 63.3371 6.85827 62.8894 8.67934 63.8273L9.44938 64.2237L9.99724 63.5531C10.5824 62.8368 10.4071 61.9718 10.2912 61.3979C10.0442 60.1614 10.3608 58.7853 11.1608 57.6229C11.9608 56.4616 13.1317 55.6746 14.3749 55.4637L14.3727 55.4496H17.6603L20.2204 58.0096H26.31L28.8056 55.4496H35.3504L35.3329 55.4671C36.199 56.3559 36.8249 57.3215 37.1935 58.3375C37.8516 60.1496 37.6079 62.173 36.5733 63.4921L35.5601 64.7839L37.1511 65.1893C38.4498 65.5195 39.7925 65.8615 40.86 66.5688C41.6752 67.1088 42.5386 68.088 42.5165 69.2193C42.4979 70.1448 41.8969 71.0675 41.1721 72.092L42.9185 73.3273C43.6377 72.3114 44.6226 70.9194 44.6553 69.2611C44.6864 67.5882 43.6846 65.8734 42.0393 64.7834ZM36.2482 53.3102H27.8982L25.4026 55.8702H21.1103L18.5435 53.3102H10.2076V51.0283L13.9509 47.8198L19.1705 43.3421V30.0433C19.1705 26.8133 19.9332 24.1532 21.5592 21.665C21.7305 21.4083 22.3648 21.1301 23.2276 21.1301C24.083 21.1301 24.7253 21.4083 24.8892 21.665C26.522 24.1538 27.278 26.8133 27.278 30.0433V43.3421L32.5049 47.8198L36.2482 51.0283V53.3102ZM36.752 16.8661C36.9685 16.6241 37.025 16.6258 37.2393 16.8661C39.044 18.8952 41.1958 22.0766 41.1958 25.7091V48.6187L36.8475 48.725L33.475 45.8371V22.867C34.2722 19.8654 36.0888 17.6118 36.752 16.8661ZM4.0393 25.7153C4.0393 21.5689 6.7107 18.1297 7.85898 16.8435C8.03086 16.6518 8.25475 16.6524 8.42549 16.8435C9.08246 17.5796 10.8594 19.7636 11.6979 22.66V46.9356L9.46295 48.8499H4.0393V25.7153ZM31.0931 64.8099C31.987 67.0969 31.9525 69.8627 30.9993 72.3979L28.9973 71.6442C29.7673 69.597 29.8046 67.3898 29.1013 65.5879C28.355 63.6769 26.6933 62.1821 24.8683 61.779L25.3302 59.6899C27.8705 60.2525 30.0788 62.2143 31.0931 64.8099ZM21.4778 59.6905L21.9397 61.7795C20.1146 62.1826 18.4536 63.6775 17.7067 65.5885C17.0028 67.3898 17.0407 69.5975 17.8107 71.6448L15.8087 72.3984C14.8555 69.8633 14.821 67.0969 15.7149 64.8105C16.7286 62.2143 18.937 60.2525 21.4778 59.6905ZM22.1562 45.4147H24.2956V51.8199H22.1562V45.4147Z" fill="#416BD0"/>
</svg>
