<svg width="268" height="270" viewBox="0 0 268 270" fill="none" xmlns="http://www.w3.org/2000/svg">
<rect x="1.5" y="0.5" width="265" height="265.122" rx="22.5" stroke="#9D9D9D"/>
<line x1="1" y1="15.4219" x2="267" y2="15.4219" stroke="#9D9D9D"/>
<line x1="1" y1="83.6572" x2="267" y2="83.6572" stroke="#9D9D9D"/>
<line x1="1" y1="133.698" x2="267" y2="133.698" stroke="#9D9D9D"/>
<line x1="1" y1="183.739" x2="267" y2="183.739" stroke="#9D9D9D"/>
<line x1="1" y1="251.975" x2="267" y2="251.975" stroke="#9D9D9D"/>
<line x1="17.2788" x2="17.2788" y2="266.122" stroke="#9D9D9D"/>
<line x1="84.9062" x2="84.9062" y2="266.122" stroke="#9D9D9D"/>
<line x1="134.5" x2="134.5" y2="266.122" stroke="#9D9D9D"/>
<line x1="181.839" x2="181.839" y2="266.122" stroke="#9D9D9D"/>
<line x1="249.466" x2="249.466" y2="266.122" stroke="#9D9D9D"/>
<line y1="-0.5" x2="377.879" y2="-0.5" transform="matrix(-0.703929 0.710271 -0.703929 -0.710271 267 0)" stroke="#9D9D9D"/>
<line y1="-0.5" x2="377.879" y2="-0.5" transform="matrix(-0.703929 -0.71027 0.703929 -0.710271 267 268.396)" stroke="#9D9D9D"/>
<path d="M248.465 133.061C248.465 197.483 196.708 249.7 132.872 249.7C69.0359 249.7 17.2788 197.483 17.2788 133.061C17.2788 68.6387 69.0359 16.4219 132.872 16.4219C196.708 16.4219 248.465 68.6387 248.465 133.061Z" stroke="#9D9D9D"/>
<path d="M203.381 133.062C203.381 172.361 171.809 204.21 132.872 204.21C93.9357 204.21 62.3638 172.361 62.3638 133.062C62.3638 93.764 93.9357 61.9141 132.872 61.9141C171.809 61.9141 203.381 93.764 203.381 133.062Z" stroke="#9D9D9D"/>
<path d="M183.093 133.061C183.093 161.054 160.605 183.738 132.873 183.738C105.141 183.738 82.6528 161.054 82.6528 133.061C82.6528 105.069 105.141 82.3838 132.873 82.3838C160.605 82.3838 183.093 105.069 183.093 133.061Z" stroke="#9D9D9D"/>
<path d="M200.218 124.44C198.926 124.44 197.864 125.486 197.864 126.76C197.864 127.351 197.818 127.942 197.772 128.533C197.587 129.807 198.51 130.989 199.803 131.126C199.895 131.126 199.987 131.126 200.126 131.126C201.28 131.126 202.295 130.262 202.48 129.079C202.572 128.306 202.619 127.487 202.619 126.714C202.572 125.486 201.511 124.44 200.218 124.44Z" fill="#55AC68"/>
<path d="M198.695 133.902C197.633 133.174 196.156 133.447 195.418 134.493C193.294 137.586 189.97 139.587 186.324 140.224C186.324 139.723 186.37 139.223 186.37 138.768V130.764C186.37 111.254 171.229 95.0637 151.933 93.0627C152.533 91.471 152.856 89.7428 152.856 87.9237C152.856 79.874 146.209 73.3252 138.038 73.3252C129.868 73.3252 123.22 79.874 123.22 87.9237C123.22 89.6518 123.543 91.2891 124.097 92.8353H115.373C109.187 85.9681 99.17 80.8291 91.6918 77.6911C90.9532 77.3727 90.1223 77.4637 89.476 77.873C88.8297 78.2823 88.4143 79.01 88.4143 79.8286V103.295C84.2597 107.161 81.0284 111.891 78.9972 117.075C70.088 117.212 62.8867 124.397 62.8867 133.22V136.312C62.8867 145.09 70.088 152.275 78.9511 152.457C83.1056 162.917 91.7379 171.058 102.494 174.696V182.973C102.494 184.246 103.555 185.292 104.848 185.292H122.482C123.774 185.292 124.836 184.246 124.836 182.973V176.697H137.761V182.973C137.761 184.246 138.823 185.292 140.116 185.292H157.749C159.042 185.292 160.104 184.246 160.104 182.973V174.696C167.259 172.286 173.722 167.738 178.338 161.78C182.215 156.778 184.708 151.093 185.724 145.044C191.125 144.498 196.064 141.679 199.203 137.176C200.034 136.04 199.757 134.63 198.695 133.902ZM138.084 78.0094C143.624 78.0094 148.148 82.4663 148.148 87.9237C148.148 93.381 143.624 97.8379 138.084 97.8379C132.545 97.8379 128.021 93.381 128.021 87.9237C127.975 82.4663 132.499 78.0094 138.084 78.0094ZM157.149 170.694C156.134 170.967 155.441 171.876 155.441 172.922V180.608H142.516V174.332C142.516 173.059 141.454 172.013 140.162 172.013H122.528C121.235 172.013 120.174 173.059 120.174 174.332V180.608H107.248V172.922C107.248 171.876 106.556 170.967 105.54 170.694C94.8769 167.692 86.4293 159.688 82.8748 149.365C82.5517 148.41 81.6746 147.773 80.6591 147.773H79.3204C72.9039 147.773 67.6876 142.634 67.6876 136.312V133.22C67.6876 126.898 72.9039 121.759 79.3204 121.759H80.6591C81.6746 121.759 82.5517 121.123 82.8748 120.168C84.7213 114.756 87.9988 109.89 92.338 106.024C92.8458 105.569 93.1228 104.978 93.1228 104.296V83.3759C101.847 87.3779 108.679 92.0622 112.511 96.6555C112.972 97.2012 113.665 97.5196 114.357 97.5196H114.403C114.542 97.5196 114.68 97.5196 114.819 97.5196H126.913C129.637 100.612 133.607 102.522 138.084 102.522C142.516 102.522 146.486 100.567 149.21 97.5196C167.213 98.2017 181.615 112.891 181.615 130.764V138.768C181.615 153.458 171.598 166.601 157.149 170.694Z" fill="#55AC68"/>
<path d="M95.1541 122.168C97.729 122.168 99.8164 120.112 99.8164 117.575C99.8164 115.038 97.729 112.981 95.1541 112.981C92.5791 112.981 90.4917 115.038 90.4917 117.575C90.4917 120.112 92.5791 122.168 95.1541 122.168Z" fill="#55AC68"/>
<path d="M152.81 106.067C152.81 104.794 151.748 103.748 150.456 103.748H125.713C124.421 103.748 123.359 104.794 123.359 106.067C123.359 107.341 124.421 108.387 125.713 108.387H150.456C151.748 108.387 152.81 107.341 152.81 106.067Z" fill="#55AC68"/>
<path d="M169.383 136.403C168.09 136.403 167.028 137.449 167.028 138.723C167.028 139.587 166.982 140.405 166.844 141.269C166.659 142.543 167.582 143.725 168.875 143.907C168.967 143.907 169.106 143.907 169.198 143.907C170.352 143.907 171.368 143.043 171.552 141.906C171.691 140.86 171.783 139.769 171.783 138.723C171.737 137.449 170.675 136.403 169.383 136.403Z" fill="#55AC68"/>
<path d="M167.628 147.409C166.52 146.772 165.043 147.136 164.396 148.228C161.857 152.457 157.888 155.55 153.133 156.868C151.886 157.232 151.148 158.506 151.517 159.734C151.794 160.734 152.764 161.416 153.779 161.416C154.01 161.416 154.195 161.371 154.425 161.325C160.334 159.643 165.32 155.822 168.459 150.547C169.105 149.456 168.736 148.046 167.628 147.409Z" fill="#55AC68"/>
</svg>
