<svg width="233" height="231" viewBox="0 0 233 231" fill="none" xmlns="http://www.w3.org/2000/svg">
<path d="M116.231 134.183C119.95 129.99 123.518 126.111 126.934 122.053C131.215 116.963 135.15 111.627 138.415 105.775C140.231 102.523 141.852 99.205 142.977 95.5951C144.555 90.5278 144.231 85.5277 142.696 80.5725C139.734 70.9983 133.745 64.2942 124.426 61.2224C115.302 58.2179 106.826 60.0116 99.3238 66.1776C93.3996 71.0432 90.07 77.5231 88.924 85.2138C88.7294 86.5815 88.7078 87.9717 88.6646 89.3394C88.5997 91.4695 87.1511 92.9942 85.0971 92.9942C83.2377 92.9942 81.7242 91.335 81.7458 89.2497C81.8539 79.8774 84.816 71.6486 90.8483 64.6081C96.1239 58.4645 102.675 54.5631 110.459 53.1954C120.491 51.4241 129.615 53.868 137.615 60.4825C143.582 65.4153 147.539 71.7607 149.636 79.3393C151.863 87.3887 151.128 95.1915 147.733 102.793C144.101 110.887 139.193 118.084 133.701 124.901C129.031 130.73 124.058 136.268 118.675 141.403C117.313 142.703 115.453 142.703 114.091 141.47C106.156 134.273 99.0211 126.313 92.8591 117.434C89.9618 113.264 87.4322 108.869 85.3782 104.183C84.7079 102.658 84.9458 101.313 85.9836 100.169C87.043 99.0257 88.4484 98.6221 89.8105 99.3396C90.5456 99.7432 91.3024 100.461 91.6483 101.245C94.9996 108.689 99.54 115.304 104.751 121.448C108.383 125.708 112.253 129.788 116.231 134.183Z" fill="#F69651"/>
<path d="M77.3787 145.932C103.41 145.932 129.269 145.932 155.301 145.932C154.566 144.587 153.874 143.353 153.204 142.12C150.328 136.896 147.453 131.672 144.577 126.447C143.669 124.811 143.82 123.174 145.009 121.941C146.134 120.752 147.799 120.438 149.139 121.335C149.744 121.739 150.307 122.367 150.653 123.017C155.193 131.201 159.712 139.407 164.209 147.614C165.722 150.372 164.058 153.152 160.987 153.152C131.237 153.152 101.486 153.129 71.714 153.197C69.0113 153.174 66.8492 150.372 68.514 147.434C72.3193 140.708 75.9949 133.914 79.7354 127.142C80.4921 125.797 81.2272 124.429 81.9623 123.062C83.1083 120.932 85.0542 120.237 86.9352 121.313C88.7297 122.344 89.1622 124.542 87.9946 126.649C84.6217 132.77 81.2272 138.914 77.8543 145.035C77.703 145.282 77.5733 145.551 77.3787 145.932Z" fill="#F69651"/>
<path d="M116.384 102.904C108.535 102.904 102.46 96.514 102.524 88.1955C102.589 80.5497 108.751 74.137 116.513 74.1819C124.102 74.2491 130.178 80.6842 130.178 88.8009C130.178 96.4916 123.886 102.904 116.384 102.904ZM109.422 88.644C109.443 92.5454 112.6 95.7517 116.427 95.7293C120.124 95.7069 123.281 92.4108 123.259 88.5767C123.237 84.608 120.146 81.3569 116.362 81.3793C112.513 81.3793 109.4 84.6305 109.422 88.644Z" fill="#F69651"/>
<rect x="2.15967" y="0.509766" width="229" height="227.051" rx="22.5" stroke="#9D9D9D"/>
<line x1="1.65967" y1="13.1543" x2="231.66" y2="13.1543" stroke="#9D9D9D"/>
<line x1="1.65967" y1="71.6279" x2="231.66" y2="71.6279" stroke="#9D9D9D"/>
<line x1="1.65967" y1="114.51" x2="231.66" y2="114.51" stroke="#9D9D9D"/>
<line x1="1.65967" y1="157.392" x2="231.66" y2="157.392" stroke="#9D9D9D"/>
<line x1="1.65967" y1="215.865" x2="231.66" y2="215.865" stroke="#9D9D9D"/>
<line x1="15.8037" y1="0.00976562" x2="15.8037" y2="228.061" stroke="#9D9D9D"/>
<line x1="74.2783" y1="0.00976562" x2="74.2783" y2="228.061" stroke="#9D9D9D"/>
<line x1="117.16" y1="0.00976562" x2="117.16" y2="228.061" stroke="#9D9D9D"/>
<line x1="158.092" y1="0.00976562" x2="158.092" y2="228.061" stroke="#9D9D9D"/>
<line x1="216.566" y1="0.00976562" x2="216.566" y2="228.061" stroke="#9D9D9D"/>
<line x1="232.013" y1="0.363319" x2="2.01324" y2="230.363" stroke="#9D9D9D"/>
<line x1="231.306" y1="230.363" x2="1.30611" y2="0.363353" stroke="#9D9D9D"/>
<circle cx="115.685" cy="114.036" r="99.8814" stroke="#9D9D9D"/>
<circle cx="115.685" cy="114.035" r="60.8983" stroke="#9D9D9D"/>
<circle cx="115.685" cy="114.036" r="43.3559" stroke="#9D9D9D"/>
</svg>
